{
  "accessors": [
    {
      "bufferView": 2,
      "componentType": 5126,
      "count": 1769,
      "max": [
        4.30093240737915,
        1.7950600385665894,
        1.4976756572723389
      ],
      "min": [
        -4.30093240737915,
        -13.863984107971191,
        -1.4976756572723389
      ],
      "type": "VEC3"
    },
    {
      "bufferView": 2,
      "byteOffset": 21228,
      "componentType": 5126,
      "count": 1769,
      "max": [
        1.0,
        1.0,
        1.0
      ],
      "min": [
        -1.0,
        -1.0,
        -1.0
      ],
      "type": "VEC3"
    },
    {
      "bufferView": 3,
      "componentType": 5126,
      "count": 1769,
      "max": [
        1.0,
        1.0,
        1.0,
        1.0
      ],
      "min": [
        -1.0,
        -1.0,
        -1.0,
        -1.0
      ],
      "type": "VEC4"
    },
    {
      "bufferView": 1,
      "componentType": 5126,
      "count": 1769,
      "max": [
        0.9631807804107666,
        0.9261582493782043
      ],
      "min": [
        0.002553456462919712,
        0.0024563074111938477
      ],
      "type": "VEC2"
    },
    {
      "bufferView": 1,
      "byteOffset": 14152,
      "componentType": 5126,
      "count": 1769,
      "max": [
        0.9631807804107666,
        0.9261582493782043
      ],
      "min": [
        0.002553456462919712,
        0.0024563074111938477
      ],
      "type": "VEC2"
    },
    {
      "bufferView": 1,
      "byteOffset": 28304,
      "componentType": 5126,
      "count": 1769,
      "max": [
        0.9631807804107666,
        0.9261582493782043
      ],
      "min": [
        0.002553456462919712,
        0.0024563074111938477
      ],
      "type": "VEC2"
    },
    {
      "bufferView": 1,
      "byteOffset": 42456,
      "componentType": 5126,
      "count": 1769,
      "max": [
        0.9631807804107666,
        0.9261582493782043
      ],
      "min": [
        0.002553456462919712,
        0.0024563074111938477
      ],
      "type": "VEC2"
    },
    {
      "bufferView": 1,
      "byteOffset": 56608,
      "componentType": 5126,
      "count": 1769,
      "max": [
        0.9631807804107666,
        0.9261582493782043
      ],
      "min": [
        0.002553456462919712,
        0.0024563074111938477
      ],
      "type": "VEC2"
    },
    {
      "bufferView": 1,
      "byteOffset": 70760,
      "componentType": 5126,
      "count": 1769,
      "max": [
        0.9631807804107666,
        0.9261582493782043
      ],
      "min": [
        0.002553456462919712,
        0.0024563074111938477
      ],
      "type": "VEC2"
    },
    {
      "bufferView": 0,
      "componentType": 5125,
      "count": 5292,
      "type": "SCALAR"
    },
    {
      "bufferView": 2,
      "byteOffset": 42456,
      "componentType": 5126,
      "count": 34,
      "max": [
        0.7543522715568542,
        3.0938618183135986,
        0.7543522715568542
      ],
      "min": [
        -0.7543522715568542,
        -0.010116866789758205,
        -0.7543522715568542
      ],
      "type": "VEC3"
    },
    {
      "bufferView": 2,
      "byteOffset": 42864,
      "componentType": 5126,
      "count": 34,
      "max": [
        0.9978091716766357,
        0.0,
        0.9978091716766357
      ],
      "min": [
        -0.9978091716766357,
        0.0,
        -0.9978091716766357
      ],
      "type": "VEC3"
    },
    {
      "bufferView": 3,
      "byteOffset": 28304,
      "componentType": 5126,
      "count": 34,
      "max": [
        0.9978091716766357,
        2.6910454835160635e-05,
        0.9978091716766357,
        1.0
      ],
      "min": [
        -0.9978091716766357,
        1.6445264918729663e-05,
        -0.9978091716766357,
        1.0
      ],
      "type": "VEC4"
    },
    {
      "bufferView": 1,
      "byteOffset": 84912,
      "componentType": 5126,
      "count": 34,
      "max": [
        0.6601410508155823,
        0.5697088837623596
      ],
      "min": [
        0.44381365180015564,
        0.4271228313446045
      ],
      "type": "VEC2"
    },
    {
      "bufferView": 1,
      "byteOffset": 85184,
      "componentType": 5126,
      "count": 34,
      "max": [
        0.6601410508155823,
        0.5697088837623596
      ],
      "min": [
        0.44381365180015564,
        0.4271228313446045
      ],
      "type": "VEC2"
    },
    {
      "bufferView": 1,
      "byteOffset": 85456,
      "componentType": 5126,
      "count": 34,
      "max": [
        0.6601410508155823,
        0.5697088837623596
      ],
      "min": [
        0.44381365180015564,
        0.4271228313446045
      ],
      "type": "VEC2"
    },
    {
      "bufferView": 1,
      "byteOffset": 85728,
      "componentType": 5126,
      "count": 34,
      "max": [
        0.6601410508155823,
        0.5697088837623596
      ],
      "min": [
        0.44381365180015564,
        0.4271228313446045
      ],
      "type": "VEC2"
    },
    {
      "bufferView": 1,
      "byteOffset": 86000,
      "componentType": 5126,
      "count": 34,
      "max": [
        0.6601410508155823,
        0.5697088837623596
      ],
      "min": [
        0.44381365180015564,
        0.4271228313446045
      ],
      "type": "VEC2"
    },
    {
      "bufferView": 1,
      "byteOffset": 86272,
      "componentType": 5126,
      "count": 34,
      "max": [
        0.6601410508155823,
        0.5697088837623596
      ],
      "min": [
        0.44381365180015564,
        0.4271228313446045
      ],
      "type": "VEC2"
    },
    {
      "bufferView": 0,
      "byteOffset": 21168,
      "componentType": 5125,
      "count": 96,
      "type": "SCALAR"
    },
    {
      "bufferView": 2,
      "byteOffset": 43272,
      "componentType": 5126,
      "count": 789,
      "max": [
        1.40447998046875,
        3.359438419342041,
        1.2081263065338135
      ],
      "min": [
        -1.40447998046875,
        -10.483903884887695,
        -1.2081263065338135
      ],
      "type": "VEC3"
    },
    {
      "bufferView": 2,
      "byteOffset": 52740,
      "componentType": 5126,
      "count": 789,
      "max": [
        0.9986093640327454,
        1.0,
        1.0
      ],
      "min": [
        -0.9986093640327454,
        -1.0,
        -1.0
      ],
      "type": "VEC3"
    },
    {
      "bufferView": 3,
      "byteOffset": 28848,
      "componentType": 5126,
      "count": 789,
      "max": [
        0.9986093640327454,
        1.0,
        1.0,
        1.0
      ],
      "min": [
        -0.9986092448234558,
        -1.0,
        -0.9881508350372314,
        -1.0
      ],
      "type": "VEC4"
    },
    {
      "bufferView": 1,
      "byteOffset": 86544,
      "componentType": 5126,
      "count": 789,
      "max": [
        0.9896245002746582,
        0.997441291809082
      ],
      "min": [
        0.002509517129510641,
        0.0025556087493896484
      ],
      "type": "VEC2"
    },
    {
      "bufferView": 1,
      "byteOffset": 92856,
      "componentType": 5126,
      "count": 789,
      "max": [
        0.9896245002746582,
        0.997441291809082
      ],
      "min": [
        0.002509517129510641,
        0.0025556087493896484
      ],
      "type": "VEC2"
    },
    {
      "bufferView": 1,
      "byteOffset": 99168,
      "componentType": 5126,
      "count": 789,
      "max": [
        0.9896245002746582,
        0.997441291809082
      ],
      "min": [
        0.002509517129510641,
        0.0025556087493896484
      ],
      "type": "VEC2"
    },
    {
      "bufferView": 1,
      "byteOffset": 105480,
      "componentType": 5126,
      "count": 789,
      "max": [
        0.9896245002746582,
        0.997441291809082
      ],
      "min": [
        0.002509517129510641,
        0.0025556087493896484
      ],
      "type": "VEC2"
    },
    {
      "bufferView": 1,
      "byteOffset": 111792,
      "componentType": 5126,
      "count": 789,
      "max": [
        0.9896245002746582,
        0.997441291809082
      ],
      "min": [
        0.002509517129510641,
        0.0025556087493896484
      ],
      "type": "VEC2"
    },
    {
      "bufferView": 1,
      "byteOffset": 118104,
      "componentType": 5126,
      "count": 789,
      "max": [
        0.9896245002746582,
        0.997441291809082
      ],
      "min": [
        0.002509517129510641,
        0.0025556087493896484
      ],
      "type": "VEC2"
    },
    {
      "bufferView": 0,
      "byteOffset": 21552,
      "componentType": 5125,
      "count": 2688,
      "type": "SCALAR"
    }
  ],
  "asset": {
    "extras": {
      "author": "3Dji (https://sketchfab.com/3Dji)",
      "license": "CC-BY-4.0 (http://creativecommons.org/licenses/by/4.0/)",
      "source": "https://sketchfab.com/3d-models/syringe-9b1c2c5d996c4d198de476a6a32ef674",
      "title": "Syringe"
    },
    "generator": "Sketchfab-16.72.0",
    "version": "2.0"
  },
  "bufferViews": [
    {
      "buffer": 0,
      "byteLength": 32304,
      "name": "floatBufferViews",
      "target": 34963
    },
    {
      "buffer": 0,
      "byteLength": 124416,
      "byteOffset": 32304,
      "byteStride": 8,
      "name": "floatBufferViews",
      "target": 34962
    },
    {
      "buffer": 0,
      "byteLength": 62208,
      "byteOffset": 156720,
      "byteStride": 12,
      "name": "floatBufferViews",
      "target": 34962
    },
    {
      "buffer": 0,
      "byteLength": 41472,
      "byteOffset": 218928,
      "byteStride": 16,
      "name": "floatBufferViews",
      "target": 34962
    }
  ],
  "buffers": [
    {
      "byteLength": 260400,
      "uri": "scene.bin"
    }
  ],
  "images": [
    {
      "uri": "textures/syringe_baseColor.png"
    },
    {
      "uri": "textures/syringe_metallicRoughness.png"
    },
    {
      "uri": "textures/syringe_normal.png"
    }
  ],
  "materials": [
    {
      "alphaMode": "BLEND",
      "name": "syringe",
      "normalTexture": {
        "index": 2
      },
      "occlusionTexture": {
        "index": 1
      },
      "pbrMetallicRoughness": {
        "baseColorTexture": {
          "index": 0
        },
        "metallicRoughnessTexture": {
          "index": 1
        }
      }
    }
  ],
  "meshes": [
    {
      "name": "Object_0",
      "primitives": [
        {
          "attributes": {
            "NORMAL": 1,
            "POSITION": 0,
            "TANGENT": 2,
            "TEXCOORD_0": 3,
            "TEXCOORD_1": 4,
            "TEXCOORD_2": 5,
            "TEXCOORD_3": 6,
            "TEXCOORD_4": 7,
            "TEXCOORD_5": 8
          },
          "indices": 9,
          "material": 0,
          "mode": 4
        }
      ]
    },
    {
      "name": "Object_1",
      "primitives": [
        {
          "attributes": {
            "NORMAL": 11,
            "POSITION": 10,
            "TANGENT": 12,
            "TEXCOORD_0": 13,
            "TEXCOORD_1": 14,
            "TEXCOORD_2": 15,
            "TEXCOORD_3": 16,
            "TEXCOORD_4": 17,
            "TEXCOORD_5": 18
          },
          "indices": 19,
          "material": 0,
          "mode": 4
        }
      ]
    },
    {
      "name": "Object_2",
      "primitives": [
        {
          "attributes": {
            "NORMAL": 21,
            "POSITION": 20,
            "TANGENT": 22,
            "TEXCOORD_0": 23,
            "TEXCOORD_1": 24,
            "TEXCOORD_2": 25,
            "TEXCOORD_3": 26,
            "TEXCOORD_4": 27,
            "TEXCOORD_5": 28
          },
          "indices": 29,
          "material": 0,
          "mode": 4
        }
      ]
    }
  ],
  "nodes": [
    {
      "children": [
        1
      ],
      "matrix": [
        1.0,
        0.0,
        0.0,
        0.0,
        0.0,
        2.220446049250313e-16,
        -1.0,
        0.0,
        0.0,
        1.0,
        2.220446049250313e-16,
        0.0,
        0.0,
        0.0,
        0.0,
        1.0
      ],
      "name": "Sketchfab_model"
    },
    {
      "children": [
        2
      ],
      "name": "root"
    },
    {
      "children": [
        3
      ],
      "matrix": [
        1.0,
        0.0,
        0.0,
        0.0,
        0.0,
        2.220446049250313e-16,
        1.0,
        0.0,
        0.0,
        -1.0,
        2.220446049250313e-16,
        0.0,
        0.0,
        0.0,
        0.0,
        1.0
      ],
      "name": "GLTF_SceneRootNode"
    },
    {
      "children": [
        4
      ],
      "matrix": [
        1.0,
        0.0,
        0.0,
        0.0,
        0.0,
        2.220446049250313e-16,
        -1.0,
        0.0,
        0.0,
        1.0,
        2.220446049250313e-16,
        0.0,
        0.0,
        0.0,
        0.0,
        1.0
      ],
      "name": "Sketchfab_model_0"
    },
    {
      "children": [
        5
      ],
      "matrix": [
        1.0,
        0.0,
        0.0,
        0.0,
        0.0,
        0.0,
        1.0,
        0.0,
        0.0,
        -1.0,
        0.0,
        0.0,
        0.0,
        0.0,
        0.0,
        1.0
      ],
      "name": "afc827a70fae493eaf7a41d23947ffe0.fbx_1"
    },
    {
      "children": [
        6
      ],
      "name": "RootNode_2"
    },
    {
      "children": [
        7,
        10,
        13
      ],
      "matrix": [
        1.0,
        0.0,
        0.0,
        0.0,
        0.0,
        1.0,
        1.6292067073209182e-07,
        0.0,
        0.0,
        -1.6292067073209182e-07,
        1.0,
        0.0,
        0.0,
        2.3449442386627197,
        0.0,
        1.0
      ],
      "name": "syringe_3"
    },
    {
      "children": [
        8
      ],
      "matrix": [
        1.0,
        0.0,
        0.0,
        0.0,
        0.0,
        1.0,
        5.293955920339377e-23,
        0.0,
        0.0,
        -5.293955920339377e-23,
        1.0,
        0.0,
        0.0,
        -4.440892098500626e-16,
        1.0587911840678754e-22,
        1.0
      ],
      "name": "base_4"
    },
    {
      "children": [
        9
      ],
      "name": "base_syringe_0_5"
    },
    {
      "mesh": 0,
      "name": "Object_9"
    },
    {
      "children": [
        11
      ],
      "matrix": [
        1.0,
        0.0,
        0.0,
        0.0,
        0.0,
        1.0,
        5.293955920339377e-23,
        0.0,
        0.0,
        -5.293955920339377e-23,
        1.0,
        0.0,
        0.0,
        -7.752298355102539,
        0.0,
        1.0
      ],
      "name": "liquid_6"
    },
    {
      "children": [
        12
      ],
      "name": "liquid_syringe_0_7"
    },
    {
      "mesh": 1,
      "name": "Object_12"
    },
    {
      "children": [
        14
      ],
      "matrix": [
        1.0,
        0.0,
        0.0,
        0.0,
        0.0,
        1.0,
        5.293955920339377e-23,
        0.0,
        0.0,
        -5.293955920339377e-23,
        1.0,
        0.0,
        0.0,
        5.814656734466553,
        2.752857078576476e-21,
        1.0
      ],
      "name": "pump_8"
    },
    {
      "children": [
        15
      ],
      "name": "pump_syringe_0_9"
    },
    {
      "mesh": 2,
      "name": "Object_15"
    }
  ],
  "samplers": [
    {
      "magFilter": 9729,
      "minFilter": 9987,
      "wrapS": 10497,
      "wrapT": 10497
    }
  ],
  "scene": 0,
  "scenes": [
    {
      "name": "Sketchfab_Scene",
      "nodes": [
        0
      ]
    }
  ],
  "textures": [
    {
      "sampler": 0,
      "source": 0
    },
    {
      "sampler": 0,
      "source": 1
    },
    {
      "sampler": 0,
      "source": 2
    }
  ]
}
